<?xml version="1.0" encoding="UTF-8" standalone="no"?>
<svg
   id="svg6"
   version="1.1"
   width="24"
   viewBox="0 0 24 24"
   height="24">
  <path
     id="path2"
     fill="none"
     d="M0 0h24v24H0z" />
  <path
     id="path4"
     d="M19 9h-4V3H9v6H5l7 7 7-7zM5 18v2h14v-2H5z" />
  <path
     id="path837"
     d="M 8.5207101,12.48284 5.0557086,9.0177515 H 7.03673 9.0177515 V 6.0213018 3.0248521 H 12 14.982249 v 2.9964497 2.9964497 h 1.981021 1.981022 L 15.47929,12.48284 C 13.573539,14.388639 12.007859,15.947929 12,15.947929 c -0.0079,0 -1.573539,-1.55929 -3.4792899,-3.465089 z"
     style="fill:#ffffff;stroke-width:0.0284024" />
  <path
     id="path839"
     d="M 5.0130178,19.001183 V 18.021302 H 12 18.986982 v 0.979881 0.979882 H 12 5.0130178 Z"
     style="fill:#ffffff;stroke-width:0.0284024" />
  <path
     id="path841"
     d="M 7.4186352,11.375867 5.0638481,9.0210763 H 7.0408163 9.0177844 V 6.7892966 4.557517 h 2.9798906 2.97989 v 2.2317796 2.2317797 h 1.335553 1.335553 v 0.6439299 0.6439308 l -1.710866,1.71086 -1.710867,1.710861 H 12.000181 9.7734223 Z"
     style="fill:#ffffff;stroke-width:0.00502088" />
  <path
     id="path843"
     d="M 7.4186352,11.375867 5.0638481,9.0210763 H 7.0408163 9.0177844 V 6.7892966 4.557517 h 2.9798906 2.97989 v 2.2317796 2.2317797 h 1.335553 1.335553 v 0.6439299 0.6439308 l -1.710866,1.71086 -1.710867,1.710861 H 12.000181 9.7734223 Z"
     style="fill:#ffffff;stroke-width:0.00502088" />
  <path
     id="path845"
     d="M 6.869855,10.827545 5.0632175,9.0209041 H 7.040755 9.0182925 V 7.2591854 5.4974666 h 2.9804685 2.980469 v 1.7617188 1.7617187 h 0.371094 0.371094 v 1.6083839 1.608384 l -0.198228,0.198257 -0.198228,0.198256 H 12.000727 8.6764925 Z"
     style="fill:#ffffff;stroke-width:0.00390625" />
</svg>
